<svg width="78" height="78" viewBox="0 0 78 78" fill="none" xmlns="http://www.w3.org/2000/svg">
<path d="M38.542 4.81775C38.542 4.81775 52.9951 19.2709 52.9951 43.3594C52.9951 57.8125 60.2217 67.448 60.2217 67.448H16.8623C16.8623 67.448 24.0889 57.8125 24.0889 43.3594C24.0889 19.2709 38.542 4.81775 38.542 4.81775Z" stroke="#E5E5E3" stroke-width="1.80664" stroke-linecap="square"/>
<path d="M38.542 4.81775V67.448" stroke="#E5E5E3" stroke-width="1.80664" stroke-linecap="square"/>
<path d="M28.9062 48.1771H48.1771" stroke="#E5E5E3" stroke-width="1.80664" stroke-linecap="square"/>
<path d="M38.542 32.5195C40.5376 32.5195 42.1553 30.9018 42.1553 28.9062C42.1553 26.9107 40.5376 25.293 38.542 25.293C36.5464 25.293 34.9287 26.9107 34.9287 28.9062C34.9287 30.9018 36.5464 32.5195 38.542 32.5195Z" stroke="#E5E5E3" stroke-width="1.80664" stroke-linecap="square"/>
</svg>
