<svg width="52" height="52" viewBox="0 0 52 52" fill="none" xmlns="http://www.w3.org/2000/svg">
<path opacity="0.3" d="M41.5 38H10.5C9.67157 38 9 38.6716 9 39.5V42.5C9 43.3284 9.67157 44 10.5 44H41.5C42.3284 44 43 43.3284 43 42.5V39.5C43 38.6716 42.3284 38 41.5 38Z" stroke="#374151" stroke-width="1.4" stroke-linecap="round" stroke-linejoin="round"/>
<path d="M34.5 27H17.5C16.6716 27 16 27.6716 16 28.5V36.5C16 37.3284 16.6716 38 17.5 38H34.5C35.3284 38 36 37.3284 36 36.5V28.5C36 27.6716 35.3284 27 34.5 27Z" stroke="#374151" stroke-width="1.5" stroke-linecap="round" stroke-linejoin="round"/>
<path d="M31.5 14H20.5C19.6716 14 19 14.6716 19 15.5V22.5C19 23.3284 19.6716 24 20.5 24H31.5C32.3284 24 33 23.3284 33 22.5V15.5C33 14.6716 32.3284 14 31.5 14Z" stroke="#374151" stroke-width="1.5" stroke-linecap="round" stroke-linejoin="round"/>
<path d="M26 36.5C28.2091 36.5 30 34.7091 30 32.5C30 30.2909 28.2091 28.5 26 28.5C23.7909 28.5 22 30.2909 22 32.5C22 34.7091 23.7909 36.5 26 36.5Z" fill="white" stroke="#A51C21" stroke-width="1.5"/>
<path d="M24 32.5H28" stroke="#A51C21" stroke-width="1.5" stroke-linecap="round" stroke-linejoin="round"/>
<path d="M26 30.5V34.5" stroke="#A51C21" stroke-width="1.5" stroke-linecap="round" stroke-linejoin="round"/>
<path d="M26 10V14" stroke="#A51C21" stroke-width="1.5" stroke-linecap="round" stroke-linejoin="round"/>
<path d="M26 11C27.1046 11 28 10.1046 28 9C28 7.89543 27.1046 7 26 7C24.8954 7 24 7.89543 24 9C24 10.1046 24.8954 11 26 11Z" fill="#A51C21"/>
</svg>
