<svg width="78" height="78" viewBox="0 0 78 78" fill="none" xmlns="http://www.w3.org/2000/svg">
<path d="M38.5413 50.586C45.1932 50.586 50.5856 45.1936 50.5856 38.5417C50.5856 31.8898 45.1932 26.4974 38.5413 26.4974C31.8895 26.4974 26.4971 31.8898 26.4971 38.5417C26.4971 45.1936 31.8895 50.586 38.5413 50.586Z" stroke="#E5E5E3" stroke-width="1.80664" stroke-linecap="square"/>
<path d="M38.542 26.4974V9.63538" stroke="#E5E5E3" stroke-width="1.80664" stroke-linecap="square"/>
<path d="M38.542 50.5859V67.4479" stroke="#E5E5E3" stroke-width="1.80664" stroke-linecap="square"/>
<path d="M26.4977 38.5416H9.63574" stroke="#E5E5E3" stroke-width="1.80664" stroke-linecap="square"/>
<path d="M50.5859 38.5416H67.4479" stroke="#E5E5E3" stroke-width="1.80664" stroke-linecap="square"/>
<path d="M38.5413 43.3594C41.2021 43.3594 43.359 41.2025 43.359 38.5417C43.359 35.881 41.2021 33.724 38.5413 33.724C35.8806 33.724 33.7236 35.881 33.7236 38.5417C33.7236 41.2025 35.8806 43.3594 38.5413 43.3594Z" stroke="#E5E5E3" stroke-width="1.80664" stroke-linecap="square"/>
<path d="M21.6797 21.6797L30.1107 30.1107" stroke="#E5E5E3" stroke-width="1.80664" stroke-linecap="square"/>
<path d="M55.4036 55.4036L46.9727 46.9727" stroke="#E5E5E3" stroke-width="1.80664" stroke-linecap="square"/>
<path d="M55.4036 21.6797L46.9727 30.1107" stroke="#E5E5E3" stroke-width="1.80664" stroke-linecap="square"/>
<path d="M21.6797 55.4036L30.1107 46.9727" stroke="#E5E5E3" stroke-width="1.80664" stroke-linecap="square"/>
</svg>
