<svg width="40" height="40" viewBox="0 0 40 40" fill="none" xmlns="http://www.w3.org/2000/svg">
<path d="M11.332 15.3334V33.3334" stroke="#374151" stroke-width="2" stroke-linecap="round" stroke-linejoin="round"/>
<path d="M22.9992 9.15337L21.4863 15.3334H30.3063C30.776 15.3334 31.2393 15.4418 31.6595 15.6501C32.0796 15.8584 32.4451 16.1608 32.7269 16.5334C33.0087 16.906 33.1992 17.3385 33.2832 17.7967C33.3673 18.2549 33.3425 18.7263 33.211 19.1734L29.686 31.1734C29.5027 31.7965 29.1205 32.3439 28.5968 32.7334C28.073 33.1228 27.436 33.3334 26.7814 33.3334H6.35775C5.55528 33.3334 4.78568 33.0173 4.21824 32.4547C3.65081 31.8921 3.33203 31.129 3.33203 30.3334V18.3334C3.33203 17.5377 3.65081 16.7747 4.21824 16.2121C4.78568 15.6494 5.55528 15.3334 6.35775 15.3334H10.5332C11.0962 15.3331 11.6478 15.1771 12.1262 14.883C12.6046 14.5888 12.9908 14.1682 13.2413 13.6684L18.4606 3.33337C19.1741 3.34213 19.8763 3.51063 20.5148 3.82627C21.1533 4.14191 21.7117 4.59653 22.1481 5.15618C22.5845 5.71582 22.8877 6.36601 23.0351 7.05818C23.1825 7.75034 23.1702 8.46658 22.9992 9.15337Z" stroke="#A51C21" stroke-width="2" stroke-linecap="round" stroke-linejoin="round"/>
</svg>
