<svg width="161" height="28" viewBox="0 0 161 28" fill="none" xmlns="http://www.w3.org/2000/svg">
<path fill-rule="evenodd" clip-rule="evenodd" d="M39.4443 0.776438H35.7414L24.7174 25.5963L24.3867 26.334H31.8013L33.9704 21.2231H44.9592L47.1282 26.334H54.5429L43.1531 0.776438H39.4414H39.4443ZM39.4443 17.1133H35.7414L39.4443 8.42819L43.1882 17.1133H39.4443ZM7.41465 5.89322H25.0482V0.776438H0V26.334H7.41465V15.0818H22.481V10.2343H7.41465V5.89615M81.3035 18.1466L67.0099 0.776438H59.8587V26.334H67.0099V9.96206L80.2702 26.334H88.4547V0.776438H81.3035V18.1466ZM144.432 23.0262C141.856 23.0614 139.857 22.2212 138.449 20.5527C137.041 18.8491 136.347 16.5454 136.373 13.5713C136.373 10.6997 137.044 8.39306 138.314 6.68942C139.62 4.91845 141.654 4.11347 144.423 4.11347C147.093 4.14859 148.998 4.816 150.067 6.18009C151.135 7.55295 151.873 9.15414 152.271 10.9924L160.991 10.9573C160.423 7.4505 158.822 4.74575 156.211 2.90745C153.577 1.03403 149.73 0.0680528 144.687 0.000726767C138.976 -0.0343999 134.798 1.20381 132.129 3.71244C129.459 6.22107 128.154 9.5259 128.189 13.5684C128.224 18.6442 129.825 22.151 133.036 24.0917C136.206 26.0647 140.12 27.0658 144.695 27.1331C149.736 27.2004 153.585 26.2345 156.22 24.2264C158.822 22.2593 160.432 19.5487 161 16.1092H152.28C151.484 20.6845 148.873 22.9911 144.432 23.0233M115.47 17.0781C115.47 18.7466 114.8 20.0171 113.427 20.9157C112.054 21.8144 110.35 22.2886 108.284 22.2886C106.445 22.3237 104.809 21.8905 103.334 21.0182C101.835 20.1458 101.097 18.8491 101.097 17.0781V0.776438H93.6827V17.6811C93.6827 19.5194 94.1833 21.0533 95.1815 22.2564C96.1475 23.4595 97.3857 24.4254 98.8844 25.1631C100.392 25.892 101.984 26.4101 103.629 26.697C105.163 26.9692 106.715 27.1302 108.272 27.1624C109.542 27.1624 111.009 27.0277 112.677 26.7643C114.381 26.4686 115.982 25.9681 117.49 25.2656C118.989 24.5279 120.262 23.5619 121.295 22.3266C122.364 21.0884 122.864 19.5546 122.864 17.6841V0.779364H115.45V17.0811" fill="white"/>
</svg>
