<svg width="94" height="72" viewBox="0 0 94 72" fill="none" xmlns="http://www.w3.org/2000/svg">
<path d="M8.5 66H15" stroke="#A51C21" stroke-width="0.5"/>
<path d="M20.788 68.072C20.48 68.072 20.212 68.016 19.984 67.904C19.756 67.792 19.58 67.636 19.456 67.436C19.332 67.236 19.27 67.004 19.27 66.74H19.798C19.798 66.904 19.836 67.056 19.912 67.196C19.988 67.332 20.098 67.442 20.242 67.526C20.39 67.606 20.572 67.646 20.788 67.646C20.976 67.646 21.136 67.616 21.268 67.556C21.404 67.492 21.506 67.406 21.574 67.298C21.646 67.19 21.682 67.068 21.682 66.932C21.682 66.768 21.646 66.636 21.574 66.536C21.506 66.432 21.412 66.348 21.292 66.284C21.172 66.22 21.032 66.164 20.872 66.116C20.716 66.064 20.552 66.01 20.38 65.954C20.048 65.842 19.804 65.702 19.648 65.534C19.492 65.366 19.414 65.148 19.414 64.88C19.414 64.652 19.466 64.452 19.57 64.28C19.678 64.108 19.83 63.974 20.026 63.878C20.226 63.778 20.462 63.728 20.734 63.728C21.002 63.728 21.234 63.778 21.43 63.878C21.63 63.978 21.786 64.116 21.898 64.292C22.01 64.464 22.066 64.664 22.066 64.892H21.538C21.538 64.776 21.508 64.662 21.448 64.55C21.388 64.438 21.296 64.346 21.172 64.274C21.052 64.198 20.9 64.16 20.716 64.16C20.564 64.156 20.428 64.182 20.308 64.238C20.192 64.29 20.1 64.366 20.032 64.466C19.968 64.566 19.936 64.688 19.936 64.832C19.936 64.968 19.964 65.078 20.02 65.162C20.08 65.246 20.164 65.318 20.272 65.378C20.384 65.434 20.514 65.486 20.662 65.534C20.81 65.582 20.974 65.636 21.154 65.696C21.358 65.764 21.538 65.848 21.694 65.948C21.854 66.044 21.978 66.168 22.066 66.32C22.158 66.472 22.204 66.666 22.204 66.902C22.204 67.102 22.15 67.292 22.042 67.472C21.938 67.648 21.782 67.792 21.574 67.904C21.366 68.016 21.104 68.072 20.788 68.072ZM27.2025 68.072C26.7985 68.072 26.4425 67.982 26.1345 67.802C25.8305 67.618 25.5925 67.364 25.4205 67.04C25.2525 66.712 25.1685 66.332 25.1685 65.9C25.1685 65.472 25.2525 65.096 25.4205 64.772C25.5925 64.444 25.8305 64.188 26.1345 64.004C26.4425 63.82 26.7985 63.728 27.2025 63.728C27.6145 63.728 27.9725 63.82 28.2765 64.004C28.5805 64.188 28.8165 64.444 28.9845 64.772C29.1565 65.096 29.2425 65.472 29.2425 65.9C29.2425 66.332 29.1565 66.712 28.9845 67.04C28.8165 67.364 28.5805 67.618 28.2765 67.802C27.9725 67.982 27.6145 68.072 27.2025 68.072ZM27.2025 67.628C27.5065 67.628 27.7725 67.56 28.0005 67.424C28.2325 67.284 28.4105 67.086 28.5345 66.83C28.6625 66.57 28.7265 66.26 28.7265 65.9C28.7265 65.54 28.6625 65.232 28.5345 64.976C28.4105 64.716 28.2325 64.518 28.0005 64.382C27.7725 64.246 27.5065 64.178 27.2025 64.178C26.9025 64.178 26.6365 64.246 26.4045 64.382C26.1765 64.518 25.9985 64.716 25.8705 64.976C25.7465 65.232 25.6845 65.54 25.6845 65.9C25.6845 66.26 25.7465 66.57 25.8705 66.83C25.9985 67.086 26.1765 67.284 26.4045 67.424C26.6365 67.56 26.9025 67.628 27.2025 67.628ZM32.377 68V63.8H32.881V67.598H34.837V68H32.377ZM39.2714 68.072C38.9834 68.072 38.7214 68.014 38.4854 67.898C38.2534 67.782 38.0674 67.606 37.9274 67.37C37.7874 67.13 37.7174 66.824 37.7174 66.452V63.8H38.2214V66.458C38.2214 66.73 38.2654 66.952 38.3534 67.124C38.4454 67.296 38.5714 67.422 38.7314 67.502C38.8914 67.582 39.0754 67.622 39.2834 67.622C39.4954 67.622 39.6794 67.582 39.8354 67.502C39.9914 67.422 40.1134 67.296 40.2014 67.124C40.2894 66.952 40.3334 66.73 40.3334 66.458V63.8H40.8374V66.452C40.8374 66.824 40.7674 67.13 40.6274 67.37C40.4874 67.606 40.2994 67.782 40.0634 67.898C39.8274 68.014 39.5634 68.072 39.2714 68.072ZM45.075 68V64.214H43.821V63.8H46.833V64.214H45.579V68H45.075ZM49.8543 68V63.8H50.3583V68H49.8543ZM55.5325 68.072C55.1285 68.072 54.7725 67.982 54.4645 67.802C54.1605 67.618 53.9225 67.364 53.7505 67.04C53.5825 66.712 53.4985 66.332 53.4985 65.9C53.4985 65.472 53.5825 65.096 53.7505 64.772C53.9225 64.444 54.1605 64.188 54.4645 64.004C54.7725 63.82 55.1285 63.728 55.5325 63.728C55.9445 63.728 56.3025 63.82 56.6065 64.004C56.9105 64.188 57.1465 64.444 57.3145 64.772C57.4865 65.096 57.5725 65.472 57.5725 65.9C57.5725 66.332 57.4865 66.712 57.3145 67.04C57.1465 67.364 56.9105 67.618 56.6065 67.802C56.3025 67.982 55.9445 68.072 55.5325 68.072ZM55.5325 67.628C55.8365 67.628 56.1025 67.56 56.3305 67.424C56.5625 67.284 56.7405 67.086 56.8645 66.83C56.9925 66.57 57.0565 66.26 57.0565 65.9C57.0565 65.54 56.9925 65.232 56.8645 64.976C56.7405 64.716 56.5625 64.518 56.3305 64.382C56.1025 64.246 55.8365 64.178 55.5325 64.178C55.2325 64.178 54.9665 64.246 54.7345 64.382C54.5065 64.518 54.3285 64.716 54.2005 64.976C54.0765 65.232 54.0145 65.54 54.0145 65.9C54.0145 66.26 54.0765 66.57 54.2005 66.83C54.3285 67.086 54.5065 67.284 54.7345 67.424C54.9665 67.56 55.2325 67.628 55.5325 67.628ZM60.707 68V63.8H61.211L63.449 67.166V63.8H63.953V68H63.449L61.211 64.634V68H60.707ZM68.5935 68.072C68.2855 68.072 68.0175 68.016 67.7895 67.904C67.5615 67.792 67.3855 67.636 67.2615 67.436C67.1375 67.236 67.0755 67.004 67.0755 66.74H67.6035C67.6035 66.904 67.6415 67.056 67.7175 67.196C67.7935 67.332 67.9035 67.442 68.0475 67.526C68.1955 67.606 68.3775 67.646 68.5935 67.646C68.7815 67.646 68.9415 67.616 69.0735 67.556C69.2095 67.492 69.3115 67.406 69.3795 67.298C69.4515 67.19 69.4875 67.068 69.4875 66.932C69.4875 66.768 69.4515 66.636 69.3795 66.536C69.3115 66.432 69.2175 66.348 69.0975 66.284C68.9775 66.22 68.8375 66.164 68.6775 66.116C68.5215 66.064 68.3575 66.01 68.1855 65.954C67.8535 65.842 67.6095 65.702 67.4535 65.534C67.2975 65.366 67.2195 65.148 67.2195 64.88C67.2195 64.652 67.2715 64.452 67.3755 64.28C67.4835 64.108 67.6355 63.974 67.8315 63.878C68.0315 63.778 68.2675 63.728 68.5395 63.728C68.8075 63.728 69.0395 63.778 69.2355 63.878C69.4355 63.978 69.5915 64.116 69.7035 64.292C69.8155 64.464 69.8715 64.664 69.8715 64.892H69.3435C69.3435 64.776 69.3135 64.662 69.2535 64.55C69.1935 64.438 69.1015 64.346 68.9775 64.274C68.8575 64.198 68.7055 64.16 68.5215 64.16C68.3695 64.156 68.2335 64.182 68.1135 64.238C67.9975 64.29 67.9055 64.366 67.8375 64.466C67.7735 64.566 67.7415 64.688 67.7415 64.832C67.7415 64.968 67.7695 65.078 67.8255 65.162C67.8855 65.246 67.9695 65.318 68.0775 65.378C68.1895 65.434 68.3195 65.486 68.4675 65.534C68.6155 65.582 68.7795 65.636 68.9595 65.696C69.1635 65.764 69.3435 65.848 69.4995 65.948C69.6595 66.044 69.7835 66.168 69.8715 66.32C69.9635 66.472 70.0095 66.666 70.0095 66.902C70.0095 67.102 69.9555 67.292 69.8475 67.472C69.7435 67.648 69.5875 67.792 69.3795 67.904C69.1715 68.016 68.9095 68.072 68.5935 68.072Z" fill="#A51C21"/>
<path d="M75 66H81.5" stroke="#A51C21" stroke-width="0.5"/>
<path d="M1.976 59V53.4H3.984C4.688 53.4 5.24 53.5653 5.64 53.896C6.04 54.2267 6.24 54.6907 6.24 55.288C6.24 55.6773 6.14933 56.0133 5.968 56.296C5.78667 56.5733 5.528 56.7893 5.192 56.944C4.856 57.0933 4.45333 57.168 3.984 57.168H2.2L2.384 56.976V59H1.976ZM5.864 59L4.408 56.968H4.872L6.328 59H5.864ZM2.384 57L2.2 56.808H3.984C4.58667 56.808 5.04267 56.6747 5.352 56.408C5.66667 56.1413 5.824 55.768 5.824 55.288C5.824 54.8027 5.66667 54.4293 5.352 54.168C5.04267 53.9013 4.58667 53.768 3.984 53.768H2.2L2.384 53.568V57ZM16.4298 59.04C16.0138 59.04 15.6271 58.9707 15.2698 58.832C14.9178 58.688 14.6085 58.488 14.3418 58.232C14.0805 57.9707 13.8778 57.6693 13.7338 57.328C13.5898 56.9813 13.5178 56.6053 13.5178 56.2C13.5178 55.7947 13.5898 55.4213 13.7338 55.08C13.8778 54.7333 14.0805 54.432 14.3418 54.176C14.6085 53.9147 14.9178 53.7147 15.2698 53.576C15.6271 53.432 16.0138 53.36 16.4298 53.36C16.8458 53.36 17.2298 53.432 17.5818 53.576C17.9391 53.7147 18.2485 53.912 18.5098 54.168C18.7711 54.424 18.9738 54.7253 19.1178 55.072C19.2671 55.4133 19.3418 55.7893 19.3418 56.2C19.3418 56.6107 19.2671 56.9893 19.1178 57.336C18.9738 57.6773 18.7711 57.976 18.5098 58.232C18.2485 58.488 17.9391 58.688 17.5818 58.832C17.2298 58.9707 16.8458 59.04 16.4298 59.04ZM16.4298 58.664C16.7871 58.664 17.1178 58.6027 17.4218 58.48C17.7258 58.3573 17.9898 58.184 18.2138 57.96C18.4378 57.736 18.6111 57.4747 18.7338 57.176C18.8618 56.8773 18.9258 56.552 18.9258 56.2C18.9258 55.8427 18.8618 55.5173 18.7338 55.224C18.6111 54.9253 18.4378 54.664 18.2138 54.44C17.9898 54.216 17.7258 54.0427 17.4218 53.92C17.1178 53.7973 16.7871 53.736 16.4298 53.736C16.0725 53.736 15.7418 53.7973 15.4378 53.92C15.1338 54.0427 14.8671 54.216 14.6378 54.44C14.4138 54.664 14.2378 54.9253 14.1098 55.224C13.9871 55.5173 13.9258 55.8427 13.9258 56.2C13.9258 56.552 13.9871 56.8773 14.1098 57.176C14.2378 57.4747 14.4138 57.736 14.6378 57.96C14.8671 58.184 15.1338 58.3573 15.4378 58.48C15.7418 58.6027 16.0725 58.664 16.4298 58.664ZM27.0769 59V53.4H29.4129C30.0156 53.4 30.4876 53.5227 30.8289 53.768C31.1703 54.0133 31.3409 54.368 31.3409 54.832C31.3409 55.136 31.2689 55.392 31.1249 55.6C30.9809 55.808 30.7809 55.9653 30.5249 56.072C30.2743 56.1733 29.9916 56.224 29.6769 56.224L29.8209 56.064C30.2049 56.064 30.5329 56.12 30.8049 56.232C31.0769 56.344 31.2823 56.5067 31.4209 56.72C31.5649 56.9333 31.6369 57.2 31.6369 57.52C31.6369 57.9893 31.4663 58.3547 31.1249 58.616C30.7836 58.872 30.2663 59 29.5729 59H27.0769ZM27.4849 58.648H29.5729C30.1116 58.648 30.5223 58.5573 30.8049 58.376C31.0876 58.1893 31.2289 57.8933 31.2289 57.488C31.2289 57.088 31.0876 56.7973 30.8049 56.616C30.5223 56.4293 30.1116 56.336 29.5729 56.336H27.4369V55.984H29.3969C29.8823 55.984 30.2583 55.8907 30.5249 55.704C30.7916 55.5173 30.9249 55.2373 30.9249 54.864C30.9249 54.496 30.7916 54.2187 30.5249 54.032C30.2583 53.8453 29.8823 53.752 29.3969 53.752H27.4849V58.648ZM41.7886 59.04C41.3726 59.04 40.9859 58.9707 40.6286 58.832C40.2766 58.688 39.9672 58.488 39.7006 58.232C39.4392 57.9707 39.2366 57.6693 39.0926 57.328C38.9486 56.9813 38.8766 56.6053 38.8766 56.2C38.8766 55.7947 38.9486 55.4213 39.0926 55.08C39.2366 54.7333 39.4392 54.432 39.7006 54.176C39.9672 53.9147 40.2766 53.7147 40.6286 53.576C40.9859 53.432 41.3726 53.36 41.7886 53.36C42.2046 53.36 42.5886 53.432 42.9406 53.576C43.2979 53.7147 43.6072 53.912 43.8686 54.168C44.1299 54.424 44.3326 54.7253 44.4766 55.072C44.6259 55.4133 44.7006 55.7893 44.7006 56.2C44.7006 56.6107 44.6259 56.9893 44.4766 57.336C44.3326 57.6773 44.1299 57.976 43.8686 58.232C43.6072 58.488 43.2979 58.688 42.9406 58.832C42.5886 58.9707 42.2046 59.04 41.7886 59.04ZM41.7886 58.664C42.1459 58.664 42.4766 58.6027 42.7806 58.48C43.0846 58.3573 43.3486 58.184 43.5726 57.96C43.7966 57.736 43.9699 57.4747 44.0926 57.176C44.2206 56.8773 44.2846 56.552 44.2846 56.2C44.2846 55.8427 44.2206 55.5173 44.0926 55.224C43.9699 54.9253 43.7966 54.664 43.5726 54.44C43.3486 54.216 43.0846 54.0427 42.7806 53.92C42.4766 53.7973 42.1459 53.736 41.7886 53.736C41.4312 53.736 41.1006 53.7973 40.7966 53.92C40.4926 54.0427 40.2259 54.216 39.9966 54.44C39.7726 54.664 39.5966 54.9253 39.4686 55.224C39.3459 55.5173 39.2846 55.8427 39.2846 56.2C39.2846 56.552 39.3459 56.8773 39.4686 57.176C39.5966 57.4747 39.7726 57.736 39.9966 57.96C40.2259 58.184 40.4926 58.3573 40.7966 58.48C41.1006 58.6027 41.4312 58.664 41.7886 58.664ZM53.4296 59V53.768H51.4136V53.4H55.8536V53.768H53.8376V59H53.4296ZM63.1854 59V53.4H63.5934V59H63.1854ZM74.2327 59.04C73.8167 59.04 73.4301 58.9707 73.0727 58.832C72.7207 58.688 72.4141 58.488 72.1527 58.232C71.8914 57.976 71.6887 57.6773 71.5447 57.336C71.4007 56.9893 71.3287 56.6107 71.3287 56.2C71.3287 55.7893 71.4007 55.4133 71.5447 55.072C71.6887 54.7253 71.8914 54.424 72.1527 54.168C72.4194 53.912 72.7287 53.7147 73.0807 53.576C73.4327 53.432 73.8167 53.36 74.2327 53.36C74.6274 53.36 74.9954 53.424 75.3367 53.552C75.6834 53.68 75.9794 53.8747 76.2247 54.136L75.9687 54.4C75.7287 54.1653 75.4621 53.9973 75.1687 53.896C74.8807 53.7893 74.5741 53.736 74.2487 53.736C73.8914 53.736 73.5581 53.7973 73.2487 53.92C72.9447 54.0427 72.6781 54.216 72.4487 54.44C72.2247 54.664 72.0487 54.9253 71.9207 55.224C71.7981 55.5227 71.7367 55.848 71.7367 56.2C71.7367 56.552 71.7981 56.8773 71.9207 57.176C72.0487 57.4747 72.2247 57.736 72.4487 57.96C72.6781 58.184 72.9447 58.3573 73.2487 58.48C73.5581 58.6027 73.8914 58.664 74.2487 58.664C74.5741 58.664 74.8807 58.6133 75.1687 58.512C75.4621 58.4053 75.7287 58.232 75.9687 57.992L76.2247 58.256C75.9794 58.5173 75.6834 58.7147 75.3367 58.848C74.9954 58.976 74.6274 59.04 74.2327 59.04ZM85.2817 59.04C84.8657 59.04 84.4711 58.9707 84.0977 58.832C83.7297 58.688 83.4444 58.504 83.2417 58.28L83.4257 57.976C83.6177 58.1733 83.8791 58.3413 84.2097 58.48C84.5457 58.6133 84.9004 58.68 85.2737 58.68C85.6471 58.68 85.9511 58.632 86.1857 58.536C86.4257 58.4347 86.6017 58.3013 86.7137 58.136C86.8311 57.9707 86.8897 57.7867 86.8897 57.584C86.8897 57.344 86.8257 57.152 86.6977 57.008C86.5697 56.864 86.4017 56.7493 86.1937 56.664C85.9857 56.5787 85.7591 56.5067 85.5137 56.448C85.2684 56.3893 85.0204 56.328 84.7697 56.264C84.5191 56.1947 84.2897 56.1067 84.0817 56C83.8737 55.8933 83.7057 55.7493 83.5777 55.568C83.4551 55.3813 83.3937 55.1413 83.3937 54.848C83.3937 54.5813 83.4631 54.336 83.6017 54.112C83.7404 53.888 83.9564 53.7067 84.2497 53.568C84.5431 53.4293 84.9191 53.36 85.3777 53.36C85.6871 53.36 85.9911 53.4053 86.2897 53.496C86.5937 53.5867 86.8524 53.7093 87.0657 53.864L86.9137 54.192C86.6791 54.032 86.4257 53.9147 86.1537 53.84C85.8871 53.76 85.6284 53.72 85.3777 53.72C85.0204 53.72 84.7244 53.7707 84.4897 53.872C84.2551 53.9733 84.0817 54.1093 83.9697 54.28C83.8577 54.4453 83.8017 54.632 83.8017 54.84C83.8017 55.08 83.8631 55.272 83.9857 55.416C84.1137 55.56 84.2817 55.6747 84.4897 55.76C84.6977 55.8453 84.9271 55.9173 85.1777 55.976C85.4284 56.0347 85.6764 56.0987 85.9217 56.168C86.1671 56.232 86.3937 56.3173 86.6017 56.424C86.8097 56.5307 86.9777 56.6747 87.1057 56.856C87.2337 57.0373 87.2977 57.272 87.2977 57.56C87.2977 57.8213 87.2257 58.0667 87.0817 58.296C86.9377 58.52 86.7164 58.7013 86.4177 58.84C86.1244 58.9733 85.7457 59.04 85.2817 59.04Z" fill="#CBCBCB"/>
<path d="M41.5287 11.1022L41.3652 10L37.9322 10.509L38.0956 11.6113L41.5287 11.1022Z" fill="#A51C21" stroke="#A51C21" stroke-width="0.134801"/>
<path d="M42.7119 12.0082L41.5977 12L41.5722 15.4704L42.6864 15.4786L42.7119 12.0082Z" fill="#A51C21" stroke="#A51C21" stroke-width="0.134801"/>
<path d="M42.4904 8.26926C43.4914 8.24351 44.3689 8.97971 44.4982 9.99435C44.6359 11.0764 43.8701 12.0655 42.7881 12.2034C41.7061 12.341 40.717 11.5752 40.5791 10.4932C40.4433 9.42672 41.1858 8.44726 42.2493 8.28958L42.4904 8.26926ZM42.6516 9.61767L42.5584 9.62595C42.1446 9.6873 41.8559 10.0682 41.9087 10.4831C41.9624 10.9042 42.3469 11.2024 42.768 11.1488C43.189 11.095 43.4862 10.7103 43.4327 10.2893C43.3823 9.89444 43.0412 9.60757 42.6516 9.61767Z" fill="#A51C21"/>
<path d="M37.992 10.6779L39.1062 10.686L38.5046 14.2419L37.9665 14.1483L37.992 10.6779Z" fill="#A51C21"/>
<path d="M42.6368 15.5214L42.412 14.43L39.0411 15.712L39.2376 16.2216L42.6368 15.5214Z" fill="#A51C21"/>
<path d="M78.3549 16.6131L67.4223 5.5994C66.6335 4.80472 65.3498 4.79997 64.5551 5.58879C63.7604 6.37762 63.7557 7.66131 64.5445 8.45599L75.4771 19.4697C76.2659 20.2644 77.5496 20.2692 78.3443 19.4803C79.139 18.6915 79.1437 17.4078 78.3549 16.6131Z" fill="#A51C21"/>
<path d="M80.0254 16.9952C82.2339 17.0405 83.9875 18.8677 83.9424 21.0762C83.8972 23.2849 82.07 25.0383 79.8613 24.9932C77.6846 24.9486 75.9434 23.1714 75.9434 20.9942L75.9531 20.7071C76.1034 18.5962 77.8857 16.9515 80.0254 16.9952ZM79.9854 18.9268C78.844 18.9036 77.8995 19.8109 77.876 20.9522L77.9434 20.9532H77.9453L77.9434 20.9942H77.876C77.876 22.1195 78.7763 23.0386 79.9014 23.0616C81.0428 23.0848 81.9874 22.1777 82.0107 21.0362C82.0338 19.8949 81.1267 18.9501 79.9854 18.9268Z" fill="#A51C21"/>
<path d="M58.5202 4.39582L44.4526 7.19631C43.3544 7.41493 42.6414 8.48239 42.86 9.58056C43.0786 10.6787 44.1461 11.3917 45.2443 11.1731L59.3119 8.37264C60.4101 8.15402 61.1231 7.08656 60.9045 5.98839C60.6859 4.89022 59.6184 4.1772 58.5202 4.39582Z" fill="#A51C21"/>
<path d="M63.0605 0.0009738C65.2691 0.0462782 67.0227 1.87347 66.9775 4.08203C66.9322 6.29048 65.105 8.04414 62.8965 7.99902C60.7198 7.95438 58.9786 6.17712 58.9785 4L58.9883 3.71289C59.1383 1.60183 60.9207 -0.0427444 63.0605 0.0009738ZM63.0205 1.93261C61.8791 1.90942 60.9345 2.81653 60.9111 3.95801L60.9785 3.95898H60.9805L60.9785 4H60.9111C60.9112 5.12527 61.8115 6.04439 62.9365 6.06738C64.0779 6.09056 65.0225 5.1834 65.0459 4.04199C65.0691 2.90055 64.162 1.95594 63.0205 1.93261Z" fill="#A51C21"/>
<path d="M8.75 28.8965V50.75H1.75V22.75H2.60352L8.75 28.8965ZM31.6836 22.8301L37.25 28.8604V22.75H49.1035L55.25 28.8965V50.75H47.75V29.25H37.6094L37.6836 29.3301L37.75 29.4023V50.75H30.75V29.25H20.25V50.75H12.7451L12.75 50.4951L13.25 22.9951L13.2549 22.75H31.6094L31.6836 22.8301ZM89.75 28.3965V40.25H66.75V50.75H59.25V22.75H84.1035L89.75 28.3965ZM66.25 28.75V33.75H83.25V28.75H66.25Z" fill="#A51C21"/>
</svg>
