<svg width="161" height="28" viewBox="0 0 161 28" fill="none" xmlns="http://www.w3.org/2000/svg">
<path d="M0 0H8.63837V9.94686H12.6839L24.4017 0H36.6201L20.0781 13.2371L36.6201 27.0743H24.4017L12.4526 16.6796H8.63837V27.0743H0V0Z" fill="white"/>
<path d="M39.6406 0H48.279V15.8453C48.279 19.2819 49.5641 20.6285 53.1031 20.6285H61.6625C65.2045 20.6285 66.4866 19.2848 66.4866 15.8453V0H75.1279V17.6397C75.1279 24.3637 71.5098 27.5778 63.571 27.5778H51.1975C43.2587 27.5778 39.6406 24.3666 39.6406 17.6397V0Z" fill="white"/>
<path d="M82.6777 0H91.319V9.94686H95.3645L107.079 0H119.301L102.756 13.2371L119.301 27.0743H107.079L95.1303 16.6796H91.319V27.0743H82.6777V0Z" fill="white"/>
<path d="M134.707 16.4659L138.823 6.72979H142.751L146.867 16.4659H134.704H134.707ZM151.354 27.0743H161L149.557 0H132.017L120.568 27.0743H130.22L132.242 22.2911H149.332L151.354 27.0743Z" fill="white"/>
</svg>
