<svg width="67" height="67" viewBox="0 0 67 67" fill="none" xmlns="http://www.w3.org/2000/svg">
<path opacity="0.3" d="M52.1836 47.6731H12.2413C11.1739 47.6731 10.3086 48.5384 10.3086 49.6058V52.1827C10.3086 53.2501 11.1739 54.1154 12.2413 54.1154H52.1836C53.251 54.1154 54.1163 53.2501 54.1163 52.1827V49.6058C54.1163 48.5384 53.251 47.6731 52.1836 47.6731Z" stroke="#374151" stroke-width="1.4" stroke-linecap="round" stroke-linejoin="round"/>
<path opacity="0.3" d="M20.6152 47.6731V54.1154" stroke="#374151" stroke-width="1.4" stroke-linecap="round" stroke-linejoin="round"/>
<path opacity="0.3" d="M33.5 47.6731V54.1154" stroke="#374151" stroke-width="1.4" stroke-linecap="round" stroke-linejoin="round"/>
<path opacity="0.3" d="M46.3848 47.6731V54.1154" stroke="#374151" stroke-width="1.4" stroke-linecap="round" stroke-linejoin="round"/>
<path d="M39.2987 28.3462H19.9718C18.9044 28.3462 18.0391 29.2115 18.0391 30.2789V45.7404C18.0391 46.8078 18.9044 47.6731 19.9718 47.6731H39.2987C40.3661 47.6731 41.2314 46.8078 41.2314 45.7404V30.2789C41.2314 29.2115 40.3661 28.3462 39.2987 28.3462Z" stroke="#374151" stroke-width="1.5" stroke-linecap="round" stroke-linejoin="round"/>
<path opacity="0.5" d="M18.0391 35.4327H41.2314" stroke="#374151" stroke-width="1.5" stroke-linecap="round" stroke-linejoin="round"/>
<path d="M43.8086 38.0096H55.4047" stroke="#A51C21" stroke-width="1.5" stroke-linecap="round" stroke-linejoin="round"/>
<path d="M51.5391 34.1443L55.4044 38.0097L51.5391 41.8751" stroke="#A51C21" stroke-width="1.5" stroke-linecap="round" stroke-linejoin="round"/>
<path d="M55.4041 42.5192C57.8947 42.5192 59.9138 40.5002 59.9138 38.0096C59.9138 35.519 57.8947 33.5 55.4041 33.5C52.9136 33.5 50.8945 35.519 50.8945 38.0096C50.8945 40.5002 52.9136 42.5192 55.4041 42.5192Z" fill="white" stroke="#A51C21" stroke-width="1.5"/>
<path d="M55.4036 39.5558C56.2575 39.5558 56.9497 38.8636 56.9497 38.0097C56.9497 37.1557 56.2575 36.4635 55.4036 36.4635C54.5497 36.4635 53.8574 37.1557 53.8574 38.0097C53.8574 38.8636 54.5497 39.5558 55.4036 39.5558Z" fill="#A51C21"/>
</svg>
