<svg width="90" height="34" viewBox="0 0 90 34" fill="none" xmlns="http://www.w3.org/2000/svg">
<path d="M0.936523 0.0712891L7.07324 6.07129L7.14844 6.14453V28H0V0H0.863281L0.936523 0.0712891ZM30.6064 0.078125L36.3115 6.12012V0H48.4268L48.499 0.0712891L54.6367 6.07129L54.7119 6.14453V28H47.0518V6.5H36.6689L36.7432 6.57812L36.8115 6.65039V28H29.6631V6.5H18.9111V28H11.2471L11.252 27.7451L11.7627 0.245117L11.7676 0H30.5322L30.6064 0.078125ZM84.2998 0.0712891L89.9248 5.57129L90 5.64453V17.5H66.4746V28H58.8145V0H84.2266L84.2998 0.0712891ZM65.9746 6V11H83.3516V6H65.9746Z" fill="#A51C21"/>
<path d="M0.42 33V30.2H0.748L2.004 32.316H1.828L3.068 30.2H3.396L3.4 33H3.016L3.012 30.804H3.104L2 32.66H1.816L0.704 30.804H0.804V33H0.42ZM6.17631 33L7.44431 30.2H7.84031L9.11231 33H8.69231L7.56031 30.424H7.72031L6.58831 33H6.17631ZM6.71631 32.3L6.82431 31.98H8.40031L8.51631 32.3H6.71631ZM13.1029 33.032C12.8896 33.032 12.6923 32.9973 12.5109 32.928C12.3323 32.856 12.1763 32.756 12.0429 32.628C11.9123 32.4973 11.8096 32.3453 11.7349 32.172C11.6603 31.9987 11.6229 31.808 11.6229 31.6C11.6229 31.392 11.6603 31.2013 11.7349 31.028C11.8096 30.8547 11.9136 30.704 12.0469 30.576C12.1803 30.4453 12.3363 30.3453 12.5149 30.276C12.6963 30.204 12.8936 30.168 13.1069 30.168C13.3229 30.168 13.5216 30.2053 13.7029 30.28C13.8869 30.352 14.0429 30.46 14.1709 30.604L13.9109 30.856C13.8043 30.744 13.6843 30.6613 13.5509 30.608C13.4176 30.552 13.2749 30.524 13.1229 30.524C12.9656 30.524 12.8189 30.5507 12.6829 30.604C12.5496 30.6573 12.4336 30.732 12.3349 30.828C12.2363 30.924 12.1589 31.0387 12.1029 31.172C12.0496 31.3027 12.0229 31.4453 12.0229 31.6C12.0229 31.7547 12.0496 31.8987 12.1029 32.032C12.1589 32.1627 12.2363 32.276 12.3349 32.372C12.4336 32.468 12.5496 32.5427 12.6829 32.596C12.8189 32.6493 12.9656 32.676 13.1229 32.676C13.2749 32.676 13.4176 32.6493 13.5509 32.596C13.6843 32.54 13.8043 32.4547 13.9109 32.34L14.1709 32.592C14.0429 32.736 13.8869 32.8453 13.7029 32.92C13.5216 32.9947 13.3216 33.032 13.1029 33.032ZM19.0705 33V30.2H19.4705V33H19.0705ZM17.0625 33V30.2H17.4625V33H17.0625ZM17.4225 31.752V31.404H19.1065V31.752H17.4225ZM22.6686 33V30.2H23.0686V33H22.6686ZM26.2669 33V30.2H26.5949L28.4469 32.5H28.2749V30.2H28.6749V33H28.3469L26.4949 30.7H26.6669V33H26.2669ZM31.873 33V30.2H33.849V30.548H32.273V32.652H33.905V33H31.873ZM32.237 31.748V31.408H33.677V31.748H32.237ZM36.9127 33V30.2H38.0047C38.3673 30.2 38.6527 30.2867 38.8607 30.46C39.0687 30.6307 39.1727 30.8693 39.1727 31.176C39.1727 31.3787 39.126 31.5533 39.0327 31.7C38.9393 31.844 38.806 31.9547 38.6327 32.032C38.4593 32.1093 38.25 32.148 38.0047 32.148H37.1327L37.3127 31.964V33H36.9127ZM38.7847 33L38.0727 31.984H38.5007L39.2207 33H38.7847ZM37.3127 32.004L37.1327 31.808H37.9927C38.2487 31.808 38.442 31.7533 38.5727 31.644C38.706 31.532 38.7727 31.376 38.7727 31.176C38.7727 30.976 38.706 30.8213 38.5727 30.712C38.442 30.6027 38.2487 30.548 37.9927 30.548H37.1327L37.3127 30.348V32.004ZM42.8158 33V31.928L42.9078 32.176L41.7038 30.2H42.1318L43.1438 31.868H42.9118L43.9278 30.2H44.3238L43.1238 32.176L43.2118 31.928V33H42.8158ZM50.5239 33V30.2H51.6159C51.8612 30.2 52.0706 30.2387 52.2439 30.316C52.4172 30.3933 52.5506 30.5053 52.6439 30.652C52.7372 30.7987 52.7839 30.9733 52.7839 31.176C52.7839 31.3787 52.7372 31.5533 52.6439 31.7C52.5506 31.844 52.4172 31.956 52.2439 32.036C52.0706 32.1133 51.8612 32.152 51.6159 32.152H50.7439L50.9239 31.964V33H50.5239ZM50.9239 32.004L50.7439 31.804H51.6039C51.8599 31.804 52.0532 31.7493 52.1839 31.64C52.3172 31.5307 52.3839 31.376 52.3839 31.176C52.3839 30.976 52.3172 30.8213 52.1839 30.712C52.0532 30.6027 51.8599 30.548 51.6039 30.548H50.7439L50.9239 30.348V32.004ZM55.7316 33V30.2H56.8236C57.1862 30.2 57.4716 30.2867 57.6796 30.46C57.8876 30.6307 57.9916 30.8693 57.9916 31.176C57.9916 31.3787 57.9449 31.5533 57.8516 31.7C57.7582 31.844 57.6249 31.9547 57.4516 32.032C57.2782 32.1093 57.0689 32.148 56.8236 32.148H55.9516L56.1316 31.964V33H55.7316ZM57.6036 33L56.8916 31.984H57.3196L58.0396 33H57.6036ZM56.1316 32.004L55.9516 31.808H56.8116C57.0676 31.808 57.2609 31.7533 57.3916 31.644C57.5249 31.532 57.5916 31.376 57.5916 31.176C57.5916 30.976 57.5249 30.8213 57.3916 30.712C57.2609 30.6027 57.0676 30.548 56.8116 30.548H55.9516L56.1316 30.348V32.004ZM62.2618 33.032C62.0485 33.032 61.8498 32.996 61.6658 32.924C61.4845 32.852 61.3271 32.752 61.1938 32.624C61.0605 32.4933 60.9565 32.3413 60.8818 32.168C60.8071 31.9947 60.7698 31.8053 60.7698 31.6C60.7698 31.3947 60.8071 31.2053 60.8818 31.032C60.9565 30.8587 61.0605 30.708 61.1938 30.58C61.3271 30.4493 61.4845 30.348 61.6658 30.276C61.8471 30.204 62.0458 30.168 62.2618 30.168C62.4751 30.168 62.6711 30.204 62.8498 30.276C63.0311 30.3453 63.1885 30.4453 63.3218 30.576C63.4578 30.704 63.5618 30.8547 63.6338 31.028C63.7085 31.2013 63.7458 31.392 63.7458 31.6C63.7458 31.808 63.7085 31.9987 63.6338 32.172C63.5618 32.3453 63.4578 32.4973 63.3218 32.628C63.1885 32.756 63.0311 32.856 62.8498 32.928C62.6711 32.9973 62.4751 33.032 62.2618 33.032ZM62.2618 32.676C62.4165 32.676 62.5591 32.6493 62.6898 32.596C62.8231 32.5427 62.9378 32.468 63.0338 32.372C63.1325 32.2733 63.2085 32.1587 63.2618 32.028C63.3178 31.8973 63.3458 31.7547 63.3458 31.6C63.3458 31.4453 63.3178 31.3027 63.2618 31.172C63.2085 31.0413 63.1325 30.928 63.0338 30.832C62.9378 30.7333 62.8231 30.6573 62.6898 30.604C62.5591 30.5507 62.4165 30.524 62.2618 30.524C62.1045 30.524 61.9591 30.5507 61.8258 30.604C61.6951 30.6573 61.5805 30.7333 61.4818 30.832C61.3831 30.928 61.3058 31.0413 61.2498 31.172C61.1965 31.3027 61.1698 31.4453 61.1698 31.6C61.1698 31.7547 61.1965 31.8973 61.2498 32.028C61.3058 32.1587 61.3831 32.2733 61.4818 32.372C61.5805 32.468 61.6951 32.5427 61.8258 32.596C61.9591 32.6493 62.1045 32.676 62.2618 32.676ZM66.7172 33V30.2H67.8972C68.1959 30.2 68.4585 30.2587 68.6852 30.376C68.9145 30.4933 69.0919 30.6573 69.2172 30.868C69.3452 31.0787 69.4092 31.3227 69.4092 31.6C69.4092 31.8773 69.3452 32.1213 69.2172 32.332C69.0919 32.5427 68.9145 32.7067 68.6852 32.824C68.4585 32.9413 68.1959 33 67.8972 33H66.7172ZM67.1172 32.652H67.8732C68.1052 32.652 68.3052 32.608 68.4732 32.52C68.6439 32.432 68.7759 32.3093 68.8692 32.152C68.9625 31.992 69.0092 31.808 69.0092 31.6C69.0092 31.3893 68.9625 31.2053 68.8692 31.048C68.7759 30.8907 68.6439 30.768 68.4732 30.68C68.3052 30.592 68.1052 30.548 67.8732 30.548H67.1172V32.652ZM73.5419 33.032C73.1739 33.032 72.8845 32.9267 72.6739 32.716C72.4632 32.5053 72.3579 32.1973 72.3579 31.792V30.2H72.7579V31.776C72.7579 32.088 72.8259 32.316 72.9619 32.46C73.1005 32.604 73.2952 32.676 73.5459 32.676C73.7992 32.676 73.9939 32.604 74.1299 32.46C74.2685 32.316 74.3379 32.088 74.3379 31.776V30.2H74.7259V31.792C74.7259 32.1973 74.6205 32.5053 74.4099 32.716C74.2019 32.9267 73.9125 33.032 73.5419 33.032ZM79.1579 33.032C78.9446 33.032 78.7473 32.9973 78.5659 32.928C78.3873 32.856 78.2313 32.756 78.0979 32.628C77.9673 32.4973 77.8646 32.3453 77.7899 32.172C77.7153 31.9987 77.6779 31.808 77.6779 31.6C77.6779 31.392 77.7153 31.2013 77.7899 31.028C77.8646 30.8547 77.9686 30.704 78.1019 30.576C78.2353 30.4453 78.3913 30.3453 78.5699 30.276C78.7513 30.204 78.9486 30.168 79.1619 30.168C79.3779 30.168 79.5766 30.2053 79.7579 30.28C79.9419 30.352 80.0979 30.46 80.2259 30.604L79.9659 30.856C79.8593 30.744 79.7393 30.6613 79.6059 30.608C79.4726 30.552 79.3299 30.524 79.1779 30.524C79.0206 30.524 78.8739 30.5507 78.7379 30.604C78.6046 30.6573 78.4886 30.732 78.3899 30.828C78.2913 30.924 78.2139 31.0387 78.1579 31.172C78.1046 31.3027 78.0779 31.4453 78.0779 31.6C78.0779 31.7547 78.1046 31.8987 78.1579 32.032C78.2139 32.1627 78.2913 32.276 78.3899 32.372C78.4886 32.468 78.6046 32.5427 78.7379 32.596C78.8739 32.6493 79.0206 32.676 79.1779 32.676C79.3299 32.676 79.4726 32.6493 79.6059 32.596C79.7393 32.54 79.8593 32.4547 79.9659 32.34L80.2259 32.592C80.0979 32.736 79.9419 32.8453 79.7579 32.92C79.5766 32.9947 79.3766 33.032 79.1579 33.032ZM83.6071 33V30.548H82.6471V30.2H84.9631V30.548H84.0031V33H83.6071ZM88.5396 33.032C88.3263 33.032 88.1223 33 87.9276 32.936C87.7329 32.8693 87.5796 32.784 87.4676 32.68L87.6156 32.368C87.7223 32.4613 87.8583 32.5387 88.0236 32.6C88.1889 32.6613 88.3609 32.692 88.5396 32.692C88.7023 32.692 88.8343 32.6733 88.9356 32.636C89.0369 32.5987 89.1116 32.548 89.1596 32.484C89.2076 32.4173 89.2316 32.3427 89.2316 32.26C89.2316 32.164 89.1996 32.0867 89.1356 32.028C89.0743 31.9693 88.9929 31.9227 88.8916 31.888C88.7929 31.8507 88.6836 31.8187 88.5636 31.792C88.4436 31.7653 88.3223 31.7347 88.1996 31.7C88.0796 31.6627 87.9689 31.616 87.8676 31.56C87.7689 31.504 87.6889 31.4293 87.6276 31.336C87.5663 31.24 87.5356 31.1173 87.5356 30.968C87.5356 30.824 87.5729 30.692 87.6476 30.572C87.7249 30.4493 87.8423 30.352 87.9996 30.28C88.1596 30.2053 88.3623 30.168 88.6076 30.168C88.7703 30.168 88.9316 30.1893 89.0916 30.232C89.2516 30.2747 89.3903 30.336 89.5076 30.416L89.3756 30.736C89.2556 30.656 89.1289 30.5987 88.9956 30.564C88.8623 30.5267 88.7329 30.508 88.6076 30.508C88.4503 30.508 88.3209 30.528 88.2196 30.568C88.1183 30.608 88.0436 30.6613 87.9956 30.728C87.9503 30.7947 87.9276 30.8693 87.9276 30.952C87.9276 31.0507 87.9583 31.1293 88.0196 31.188C88.0836 31.2467 88.1649 31.2933 88.2636 31.328C88.3649 31.3627 88.4756 31.3947 88.5956 31.424C88.7156 31.4507 88.8356 31.4813 88.9556 31.516C89.0783 31.5507 89.1889 31.596 89.2876 31.652C89.3889 31.708 89.4703 31.7827 89.5316 31.876C89.5929 31.9693 89.6236 32.0893 89.6236 32.236C89.6236 32.3773 89.5849 32.5093 89.5076 32.632C89.4303 32.752 89.3103 32.8493 89.1476 32.924C88.9876 32.996 88.7849 33.032 88.5396 33.032Z" fill="#7B7B7B"/>
</svg>
