<svg width="177" height="39" viewBox="0 0 177 39" fill="none" xmlns="http://www.w3.org/2000/svg">
<path d="M148.936 11.7603H151.814C153.283 14.0399 153.897 16.5522 154.022 19.197H151.141C150.993 16.558 150.411 14.0389 148.936 11.7603Z" fill="white"/>
<path d="M157.355 11.7593H159.166V16.167C158.824 14.6259 158.255 13.148 157.355 11.7593ZM153.152 11.7593H156.043C157.519 14.0468 158.132 16.568 158.258 19.2228H155.367C155.22 16.5749 154.634 14.0459 153.152 11.7593Z" fill="white"/>
<path d="M59.7474 36.0752H0V36.6503H59.7474V36.0752Z" fill="white"/>
<path d="M176.999 36.0752H117.252V36.6503H176.999V36.0752Z" fill="white"/>
<path d="M17.5832 18.0385C18.8381 17.2337 19.8036 16.1222 20.4864 14.7019C21.1694 13.2815 21.5127 11.7383 21.5127 10.0755C21.5127 7.05861 20.5935 4.72169 18.7586 3.05587C16.9239 1.39004 14.1845 0.557617 10.5405 0.557617H0V30.697H8.49188V20.0625H10.0293L15.0656 30.697H24.412L17.5832 18.0385ZM11.922 12.3343C11.4069 12.8351 10.6818 13.0884 9.74378 13.0884H8.33588V7.74651H9.74378C11.7081 7.74651 12.6893 8.62441 12.6893 10.3755C12.6893 11.1801 12.4332 11.8304 11.922 12.3343Z" fill="white"/>
<path d="M176.999 30.6702H167.646L162.2 19.247H161.224V11.8036H162.204C162.22 11.8036 162.232 11.8036 162.247 11.7997C163.258 11.7809 164.067 10.9455 164.067 9.92109C164.067 8.88176 163.235 8.04244 162.204 8.04244H161.064V9.61627H152.247V8.04244H143.93V11.7453H147.6C149.073 14.0238 149.687 16.5409 149.813 19.1845H143.93V23.1834H152.247V21.6096H161.064V30.6731H135.45V8.05131H127.636V12.2699H132.306V19.721H127.636V30.6979H119.141V0.558594H152.165V0.562551H162.713C166.359 0.562551 169.1 1.39398 170.938 3.06377C172.773 4.72663 173.689 7.07047 173.689 10.0834C173.689 14.0168 172.788 15.2828 169.76 17.2228L176.999 30.6702Z" fill="white"/>
<path d="M117.969 0.558594H109.475V30.6979H117.969V0.558594Z" fill="white"/>
<path d="M81.6699 30.6979V0.558594H90.3334L99.9368 17.6524V0.558594H108.302V30.6979H99.8518L89.9921 13.8624V30.6979H81.6699Z" fill="white"/>
<path d="M76.0256 4.45657C73.0657 1.4852 69.1666 -0.000488281 64.3284 -0.000488281C59.4914 -0.000488281 55.5962 1.4852 52.6351 4.45657C49.675 7.42793 48.1943 11.1377 48.1943 15.5869C48.1943 20.0933 49.675 23.8309 52.6351 26.8022C55.5951 29.7736 59.4904 31.2593 64.3284 31.2593C69.1655 31.2593 73.0646 29.7736 76.0256 26.8022C78.9823 23.8309 80.4625 20.0944 80.4625 15.5869C80.4625 11.1377 78.983 7.42793 76.0256 4.45657ZM69.5786 21.2059C68.2432 22.6836 66.4919 23.423 64.3295 23.423C62.166 23.423 60.4185 22.6836 59.0802 21.2059C57.7449 19.7242 57.0738 17.8534 57.0738 15.5869C57.0738 13.347 57.7449 11.496 59.0802 10.0291C60.4195 8.5662 62.167 7.83575 64.3295 7.83575C66.4929 7.83575 68.2432 8.56718 69.5786 10.0291C70.9179 11.4951 71.585 13.347 71.585 15.5869C71.585 17.8534 70.9179 19.7242 69.5786 21.2059Z" fill="white"/>
<path d="M25.8662 30.6979V13.0875H34.3601H34.3945H35.7681C36.707 13.0875 37.433 12.836 37.9453 12.3342C38.4575 11.8324 38.7135 11.1791 38.7135 10.3754C38.7135 8.62439 37.7323 7.74845 35.7681 7.74845H34.3601V7.75048H25.8662V0.558594H36.4087C40.0507 0.558594 42.7891 1.39102 44.6249 3.05585C46.4607 4.72069 47.378 7.05958 47.378 10.0736C47.378 11.7383 47.0366 13.2815 46.3537 14.7018C45.6708 16.1232 44.7034 17.2347 43.4514 18.0385L50.2803 30.697H40.9328L35.8966 20.0635H34.3601V30.6989H25.8662V30.6979Z" fill="white"/>
<path d="M66.5269 38.9995C66.1855 38.9995 65.8794 38.9421 65.6096 38.8252C65.3398 38.7094 65.1101 38.5501 64.9178 38.3461C64.7265 38.1423 64.5803 37.9047 64.4793 37.6325C64.3782 37.3603 64.3281 37.0693 64.3281 36.7584V36.7466C64.3281 36.4476 64.3802 36.1625 64.4852 35.8903C64.5902 35.6182 64.7373 35.3775 64.9267 35.1708C65.1151 34.9629 65.3436 34.7975 65.6086 34.6748C65.8745 34.5521 66.1698 34.4917 66.4946 34.4917C66.6762 34.4917 66.8409 34.5035 66.9911 34.5283C67.1412 34.5531 67.2815 34.5897 67.4111 34.6411C67.5405 34.6906 67.6622 34.751 67.7751 34.8243C67.8878 34.8975 67.9988 34.9797 68.1057 35.0708L67.7908 35.4439C67.7083 35.3696 67.6219 35.3023 67.5308 35.242C67.4405 35.1826 67.3423 35.1311 67.2374 35.0865C67.1324 35.043 67.0176 35.0094 66.891 34.9836C66.7654 34.9589 66.627 34.947 66.474 34.947C66.2356 34.947 66.0147 34.9956 65.8136 35.0905C65.6115 35.1865 65.4388 35.3142 65.2946 35.4756C65.1504 35.6379 65.0375 35.827 64.9551 36.0457C64.8727 36.2635 64.8315 36.4932 64.8315 36.7336V36.7475C64.8315 37.0078 64.8717 37.2504 64.9522 37.4692C65.0327 37.6898 65.1464 37.8809 65.2946 38.0423C65.4428 38.2045 65.6213 38.3313 65.8313 38.4224C66.0413 38.5134 66.2778 38.56 66.5407 38.56C66.788 38.56 67.0205 38.5174 67.2384 38.4323C67.4561 38.3481 67.6397 38.2442 67.7877 38.1244V37.0405H66.473V36.599H68.2578V38.3372C68.0556 38.5194 67.8084 38.6767 67.5141 38.8074C67.2237 38.9341 66.8939 38.9995 66.5269 38.9995Z" fill="white"/>
<path d="M75.5342 34.5645H77.3923C77.6599 34.5645 77.8969 34.6032 78.1056 34.6803C78.3128 34.7566 78.4842 34.8635 78.6206 35.001C78.7279 35.1089 78.8099 35.2357 78.8681 35.3812C78.9262 35.5267 78.953 35.687 78.953 35.8612V35.8731C78.953 36.0552 78.9262 36.2185 78.8681 36.3621C78.8099 36.5046 78.7287 36.6293 78.6236 36.7352C78.5185 36.8412 78.394 36.9283 78.2509 36.9976C78.1056 37.0659 77.9498 37.1144 77.7821 37.1441L79.1081 38.9258H78.5088L77.2566 37.2322H77.2455H76.0216V38.9258H75.5349L75.5342 34.5645ZM77.3521 36.7877C77.513 36.7877 77.6614 36.768 77.7978 36.7264C77.9342 36.6848 78.0504 36.6254 78.1496 36.5491C78.2487 36.4729 78.3277 36.3799 78.3821 36.2691C78.438 36.1592 78.4656 36.0335 78.4656 35.8909V35.879C78.4656 35.6088 78.3687 35.3989 78.1756 35.2475C77.9811 35.0961 77.7083 35.0208 77.358 35.0208H76.0209V36.7887H77.3521V36.7877Z" fill="white"/>
<path d="M88.1797 38.9995C87.8495 38.9995 87.5491 38.9401 87.2801 38.8193C87.0117 38.6985 86.7792 38.5362 86.5869 38.3303C86.3931 38.1244 86.2433 37.8859 86.1397 37.6147C86.0353 37.3434 85.9824 37.0574 85.9824 36.7584V36.7466C85.9824 36.4476 86.0361 36.1606 86.1434 35.8864C86.2507 35.6122 86.4006 35.3726 86.5936 35.1667C86.7881 34.9608 87.0207 34.7965 87.292 34.6748C87.5625 34.5521 87.8644 34.4917 88.1938 34.4917C88.5225 34.4917 88.8214 34.551 89.0912 34.6719C89.361 34.7926 89.5928 34.955 89.7851 35.1608C89.9797 35.3667 90.1287 35.6063 90.2331 35.8775C90.3374 36.1497 90.3903 36.4338 90.3903 36.7327C90.3948 36.7377 90.3948 36.7416 90.3903 36.7466C90.3903 37.0454 90.3359 37.3306 90.2286 37.6058C90.122 37.8799 89.9715 38.1194 89.7792 38.3254C89.5846 38.5312 89.3521 38.6956 89.0815 38.8173C88.808 38.938 88.5084 38.9995 88.1797 38.9995ZM88.1916 38.5452C88.4376 38.5452 88.6656 38.4976 88.8736 38.4045C89.08 38.3115 89.2589 38.1839 89.4065 38.0225C89.5548 37.8591 89.6718 37.6711 89.7553 37.4553C89.8395 37.2395 89.8813 37.0069 89.8813 36.7584V36.7466C89.8813 36.4971 89.8395 36.2635 89.7553 36.0448C89.6718 35.827 89.5518 35.637 89.4013 35.4746C89.2477 35.3122 89.0666 35.1846 88.8602 35.0896C88.6522 34.9935 88.4249 34.946 88.1789 34.946C87.9307 34.946 87.7034 34.9935 87.4955 35.0865C87.2882 35.1796 87.1094 35.3083 86.9618 35.4696C86.8135 35.632 86.6965 35.82 86.6137 36.0358C86.5295 36.2516 86.4863 36.4842 86.4863 36.7327V36.7466C86.4863 36.995 86.5295 37.2286 86.6137 37.4464C86.6965 37.6641 86.8165 37.8541 86.9678 38.0166C87.1205 38.1789 87.3009 38.3075 87.5081 38.4036C87.7176 38.4976 87.9434 38.5452 88.1916 38.5452Z" fill="white"/>
<path d="M99.3197 38.9935C99.0529 38.9935 98.8091 38.9529 98.5893 38.8718C98.3686 38.7906 98.1793 38.6709 98.0213 38.5105C97.8626 38.3502 97.7403 38.1521 97.6531 37.9146C97.5659 37.6789 97.5234 37.4068 97.5234 37.099V34.5639H98.0101V37.0683C98.0101 37.5414 98.1271 37.9047 98.3589 38.1571C98.5915 38.4115 98.9157 38.5372 99.3309 38.5372C99.7311 38.5372 100.047 38.4164 100.283 38.1759C100.516 37.9354 100.634 37.5761 100.634 37.0979V34.563H101.122V37.0603C101.122 37.3811 101.079 37.6602 100.992 37.9007C100.905 38.1423 100.783 38.3432 100.624 38.5055C100.465 38.6679 100.277 38.7886 100.057 38.8698C99.8384 38.9529 99.5925 38.9935 99.3197 38.9935Z" fill="white"/>
<path d="M108.452 34.5645H110.069C110.312 34.5645 110.534 34.5972 110.733 34.6615C110.932 34.7258 111.104 34.8179 111.245 34.9357C111.386 35.0535 111.496 35.198 111.573 35.3683C111.649 35.5376 111.687 35.7316 111.687 35.9473V35.9593C111.687 36.1967 111.643 36.4036 111.55 36.5798C111.46 36.7561 111.338 36.9045 111.184 37.0253C111.029 37.146 110.848 37.2351 110.642 37.2965C110.437 37.3569 110.218 37.3866 109.987 37.3866H108.937V38.9258H108.451V34.5645H108.452ZM110.01 36.9441C110.189 36.9441 110.35 36.9213 110.496 36.8758C110.642 36.8292 110.768 36.7649 110.874 36.6788C110.979 36.5937 111.06 36.4917 111.115 36.375C111.171 36.2582 111.198 36.1265 111.198 35.982V35.9701C111.198 35.6574 111.093 35.4207 110.879 35.2604C110.666 35.1 110.386 35.0199 110.034 35.0199H108.939V36.9441H110.01Z" fill="white"/>
</svg>
