<svg width="45" height="44" viewBox="0 0 45 44" fill="none" xmlns="http://www.w3.org/2000/svg">
<path d="M37.5 23.8333C37.5 32.9999 30.9375 37.5833 23.1375 40.2416C22.7291 40.3769 22.2854 40.3705 21.8813 40.2233C14.0625 37.5833 7.5 32.9999 7.5 23.8333V10.9999C7.5 10.5137 7.69754 10.0474 8.04918 9.70357C8.40081 9.35975 8.87772 9.1666 9.375 9.1666C13.125 9.1666 17.8125 6.9666 21.075 4.17993C21.4722 3.84809 21.9775 3.66577 22.5 3.66577C23.0225 3.66577 23.5278 3.84809 23.925 4.17993C27.2063 6.98493 31.875 9.1666 35.625 9.1666C36.1223 9.1666 36.5992 9.35975 36.9508 9.70357C37.3025 10.0474 37.5 10.5137 37.5 10.9999V23.8333Z" stroke="#374151" stroke-width="2" stroke-linecap="round" stroke-linejoin="round"/>
<path d="M16.875 21.9999L20.625 25.6666L28.125 18.3333" stroke="#A51C21" stroke-width="2" stroke-linecap="round" stroke-linejoin="round"/>
</svg>
