<svg width="78" height="78" viewBox="0 0 78 78" fill="none" xmlns="http://www.w3.org/2000/svg">
<path d="M28.9066 28.9063C35.5584 28.9063 40.9508 26.7493 40.9508 24.0886C40.9508 21.4278 35.5584 19.2709 28.9066 19.2709C22.2547 19.2709 16.8623 21.4278 16.8623 24.0886C16.8623 26.7493 22.2547 28.9063 28.9066 28.9063Z" stroke="#E5E5E3" stroke-width="1.80664" stroke-linecap="square"/>
<path d="M16.8623 24.0885V52.9947C16.8623 55.6445 22.2822 57.8125 28.9066 57.8125C35.5309 57.8125 40.9508 55.6445 40.9508 52.9947V24.0885" stroke="#E5E5E3" stroke-width="1.80664" stroke-linecap="square"/>
<path d="M52.9945 38.5417C59.6463 38.5417 65.0387 36.3847 65.0387 33.724C65.0387 31.0632 59.6463 28.9062 52.9945 28.9062C46.3426 28.9062 40.9502 31.0632 40.9502 33.724C40.9502 36.3847 46.3426 38.5417 52.9945 38.5417Z" stroke="#E5E5E3" stroke-width="1.80664" stroke-linecap="square"/>
<path d="M40.9502 33.724V62.6302C40.9502 65.28 46.3701 67.448 52.9945 67.448C59.6188 67.448 65.0387 65.28 65.0387 62.6302V33.724" stroke="#E5E5E3" stroke-width="1.80664" stroke-linecap="square"/>
<path d="M28.9062 24.0885V57.8125" stroke="#E5E5E3" stroke-width="1.80664" stroke-linecap="square" stroke-dasharray="2.41 4.82"/>
<path d="M52.9951 33.724V67.448" stroke="#E5E5E3" stroke-width="1.80664" stroke-linecap="square" stroke-dasharray="2.41 4.82"/>
</svg>
