<svg width="175" height="27" viewBox="0 0 175 27" fill="none" xmlns="http://www.w3.org/2000/svg">
<path d="M77.4297 13.3418C80.0517 16.4276 83.3301 22.0888 85.2988 26.4638H92.958C90.7675 21.4326 86.3896 14.7359 83.9892 12.1372C87.3463 8.50885 90.2863 4.5072 92.7363 0.216797H85.083C82.9217 3.9822 80.3551 7.49969 77.4297 10.7109V0.216797H70.8672V26.4463H77.4297V13.3418Z" fill="white"/>
<path d="M17.0624 0.211426C15.8083 3.83975 14.1983 7.33391 12.2529 10.6443C10.3075 7.33682 8.69164 3.84266 7.43748 0.211426H0C2.17874 5.87849 5.19748 11.181 8.95122 15.9526V26.4468H15.5312V15.9526C19.2908 11.1868 22.3153 5.87849 24.4999 0.211426H17.0624Z" fill="white"/>
<path d="M30.6221 0.211426C27.3437 6.77391 23.4062 17.933 21.4375 26.4468H28.4375C28.7408 25.0818 29.0908 23.6059 29.4875 22.0689H38.7479C39.1504 23.6234 39.5062 25.0993 39.8154 26.4468H46.8095C44.8408 17.933 40.9033 6.77391 37.625 0.211426H30.625H30.6221ZM30.9254 16.8364C31.8996 13.4851 33.0254 9.99681 34.122 6.84974C35.245 9.99681 36.3445 13.4851 37.345 16.8364H30.9254Z" fill="white"/>
<path d="M62.7744 12.4669L56.6523 9.83611C55.1211 9.18278 54.4678 8.73653 54.4678 7.65153C54.4678 6.33029 54.9053 5.79946 55.999 5.68279C59.3765 5.49904 62.7657 5.79362 66.0615 6.56071V0.765303C63.1798 0.234471 60.2457 -0.0192765 57.3144 0.00114014C55.8503 0.00697346 54.389 0.117805 52.9365 0.327804C49.4365 0.88197 47.6895 3.06363 47.6895 7.43862C47.6895 10.5244 48.7832 12.9074 51.8428 14.2286L57.9648 16.8507C59.4961 17.5098 60.1494 17.9444 60.1494 19.0411C60.1494 20.3507 59.7119 20.8932 58.6182 21.0098C55.2407 21.1761 51.8515 20.8815 48.5557 20.1319V25.9273C51.4432 26.4523 54.3774 26.7061 57.3086 26.6915C58.7728 26.6856 60.234 26.5748 61.6777 26.3648C65.1777 25.8106 66.9306 23.7427 66.9306 19.254C66.9306 15.7423 65.8369 13.7736 62.7715 12.464L62.7744 12.4669Z" fill="white"/>
<path d="M100.395 0.211347C97.1113 6.77383 93.1797 17.933 91.2109 26.4467H98.2051C98.5084 25.0817 98.8642 23.6146 99.2609 22.0688H108.521C108.924 23.6117 109.274 25.0817 109.577 26.4467H116.577C114.608 17.9155 110.671 6.75633 107.393 0.193848L100.398 0.211347H100.395ZM100.699 16.8421C101.673 13.4588 102.773 10.0026 103.895 6.84966C105.018 10.0026 106.118 13.4617 107.092 16.8421H100.696H100.699Z" fill="white"/>
<path d="M144.359 0.211426C143.365 5.63058 141.889 12.1551 140.401 17.9826C138.826 12.0939 137.266 5.50224 136.266 0.211426H129.939C128.945 5.50224 127.384 12.0939 125.809 17.9826C124.31 12.1551 122.846 5.63641 121.846 0.211426H114.834C116.581 8.08932 119.865 19.4643 122.242 26.4643H129.458C130.564 22.5501 131.864 17.341 133.069 12.0939C134.274 17.341 135.58 22.5501 136.68 26.4643H143.896C146.302 19.4643 149.586 8.0864 151.304 0.211426H144.359Z" fill="white"/>
<path d="M167.982 26.4467H175C173.031 17.9155 169.094 6.75633 165.815 0.193848H158.798C155.514 6.75633 151.576 17.9155 149.613 26.4467H156.607C156.911 25.0817 157.267 23.6059 157.663 22.0688H166.924C167.326 23.6234 167.682 25.0992 167.985 26.4467H167.982ZM159.092 16.8188C160.075 13.4413 161.172 9.97923 162.295 6.83216C163.412 9.97923 164.512 13.4442 165.492 16.8188H159.09H159.092Z" fill="white"/>
</svg>
